Patient4_TMGait_0pt6_02_left_01_EMG.mot
version=1
nRows=26
nColumns=33
inDegrees=no
endheader
time	1LAddLong	2LGlutMax	3LGlutMed	4LIliopsoas	5LSemiMemb	6LBicFemLong	7LRecFem	8LVastMed	9LVastLat	10LGasMed	11LTibAnt	12lTibPost	13LPeroneusLong	14LSol	15LExtDigLong	16LFlexDigLong	17RAddLong	18RGlutMax	19RGlutMed	20RIliopsoas	21RSemiMemb	22RBicFemLong	23RRecFem	24RVastMed	25RVastLat	26RGasMed	27RTibAnt	28RTibPost	29RPeroneusLong	30RSol	31RExtDigLong	32RFlexDigLong
1.17	0.048523	-0.15976	-0.037384	-0.005341	-0.026093	-0.037994	-0.036469	0.003967	0.076752	0.023956	0.08667	0.001984	0.057678	-0.042725	0.002747	-0.005493	-0.024261	-0.24414	0.29556	0.073547	0.066833	-0.23102	-0.14816	-0.042114	0.094299	-0.059052	0.045319	-0.2832	0.97931	0.2388	0.001526	-0.014343
1.171	-0.007477	-0.1265	-0.036469	0.00885	0.040436	-0.029602	-0.002289	0.003815	0.075989	0.011749	0.039215	0.002289	0.062866	0.038757	0.027008	-0.001068	-0.039978	-0.27664	0.16007	0.021515	0.10178	-0.067749	-0.029755	0.076447	0.12955	-0.030823	0.064697	-0.10483	0.75195	0.66895	-0.003052	-0.01709
1.172	0.033417	-0.1329	-0.033417	0.006866	0.05722	0.027313	-0.022125	0.006866	0.076752	-0.042877	0.048676	-0.000153	0.044708	0.12238	0.072021	-0.001221	-0.027313	-0.3183	0.24124	-0.012665	0.10941	-0.010681	0.14114	0.33966	0.47485	-0.005951	0.039368	0.22095	0.004272	0.62439	-0.002747	-0.00824
1.173	0.02243	-0.13184	-0.017548	0.007477	-0.035095	0.027924	-0.029602	0.003052	0.064392	-0.048981	0.007477	-0.003815	0.04425	0.083771	0.032349	-0.000305	-0.00473	-0.27649	0.42145	0.013428	0.13489	0.1886	0.077972	0.18417	0.54092	-0.021667	0.036774	0.056458	-0.04364	0.49393	-0.004425	-0.004578
1.174	0.015869	-0.15106	-0.012665	-0.006866	-0.063934	0.00885	-0.036316	0.004578	0.073242	-0.045471	-0.035553	-0.006866	0.058899	-0.005341	-0.019989	-0.007324	-0.002594	-0.12817	0.5249	-0.007172	0.13138	0.30701	0.001526	0.043945	0.38025	0.00351	-0.036011	-0.033722	0.45532	0.33554	-0.001221	-0.010681
1.175	0.01297	-0.11948	-0.006256	0.003204	0.023956	0.019684	-0.036163	0.002136	0.078583	-0.051575	-0.034637	0.002136	0.072937	-0.018921	0.00351	-0.029297	-0.009766	-0.075378	0.58548	-0.09903	0.10529	0.40375	-0.088654	-0.031281	0.26016	0.067596	0.045776	0.026245	-0.1651	0.22598	-0.002441	-0.005035
1.176	0.015411	-0.11551	-0.019379	0.001068	0.056305	0.000153	-0.034637	0.005341	0.065613	-0.026398	-0.01297	-0.00061	0.079346	-0.099487	0.006561	-0.004425	-0.00946	-0.092316	0.34882	-0.07019	0.06485	0.5574	-0.67215	-0.2211	0.30746	0.031128	-0.00885	0.051575	-0.062714	0.018616	-0.001373	-0.011902
1.177	0.011902	-0.1207	-0.034943	0.005493	0.056458	0.017853	-0.016632	0.004578	0.069122	-0.020142	0.01358	-0.003662	0.059814	-0.15915	0.024719	-0.007019	-0.02533	-0.085297	0.28656	-0.028076	0.049133	0.46265	-0.95123	0.08255	0.19943	0.005951	-0.072937	0.015564	-0.23804	0.054321	-0.005798	-0.018158
1.178	0.016937	-0.091553	-0.077515	-0.003204	0.023346	0.013275	-0.030365	0.005188	0.070801	-0.039825	0.023804	-0.006256	0.057068	-0.1471	0.022888	-0.00351	-0.0177	-0.11597	-0.047455	0.061798	0.071716	0.16937	-0.58197	0.30151	-0.044708	-0.019531	-0.023346	0.007019	0.37979	0.16312	-0.002594	-0.014648
1.179	0.016785	-0.084229	-0.10346	0.021057	0.007019	-0.00351	-0.045929	0.00473	0.061646	-0.045776	0.016479	-0.00824	0.041962	-0.000916	0.041351	-0.004272	0.002899	-0.11017	-0.73807	0.046692	0.11002	0.043945	-0.1535	0.15579	-0.49957	-0.000305	0.003357	-0.2356	-0.21286	-0.097504	0.00824	-0.015259
1.18	0.016327	-0.070038	-0.10727	0.010529	0.013123	0.017548	-0.032349	0.005035	0.054321	-0.049744	0.012207	0.001068	0.057373	0.051727	0.042419	-0.011139	0.012207	-0.12863	-0.42221	0.020447	0.045929	0.005798	-0.068207	0.043945	-0.45136	-0.037079	0.083466	-0.090027	-0.45837	-0.11765	-0.007324	-0.02121
1.181	0.009613	-0.090332	-0.09903	0.008545	0.011597	0.015564	-0.035248	0.00473	0.062256	-0.0383	0.013123	-0.011902	0.036163	-0.003662	0.032043	-0.008698	0.017395	-0.17929	-0.15762	-0.031128	0.004883	0.01236	-0.1236	-0.034332	-0.15167	-0.023041	0.10574	0.14648	-0.043793	-0.09552	-0.002594	-0.028687
1.182	0.010986	-0.098419	-0.076904	0.005951	0.009918	-0.005493	-0.028992	0.008392	0.050049	-0.042419	0.007172	-0.006104	0.03067	-0.027466	0.016479	0.001221	0.026093	-0.28656	0.10101	-0.070648	0.012665	0.056152	-0.054321	-0.028381	-0.081787	-0.012665	0.063934	0.19775	0.20508	-0.68085	-0.002136	-0.027466
1.183	0.007172	-0.12131	-0.054321	-0.003204	0.001526	-0.000916	-0.018311	0.005493	0.057678	-0.035248	0.00946	-0.000305	0.041504	-0.033569	0.016937	-0.004425	0.033569	-0.24353	-0.060425	0.009155	0.029449	0.11856	-0.076752	-0.0383	-0.054169	-0.028534	0.02533	0.052795	0.73837	-0.72464	-0.001984	-0.025024
1.184	0.004578	-0.067749	0.018158	-0.00473	0.011292	-0.009003	-0.02594	0.009766	0.056458	-0.049286	0.015106	0	0.046234	-0.018921	0.023499	-0.003967	0.013275	-0.16968	-0.49469	0.049591	0.033264	0.10086	-0.098572	-0.054474	-0.032349	-0.040588	0.015564	0.11231	0.42313	-0.1033	0.000916	-0.010223
1.185	0.010071	-0.094604	0.053558	-0.016785	0.012665	-0.003967	-0.00885	0.004425	0.061188	-0.04425	0.016327	0.001221	0.068665	0.001831	0.014496	-0.000305	0.020599	-0.055237	0.26032	0.001984	0.050049	0.02182	-0.010681	-0.023651	-0.10162	-0.12375	0.027466	-0.41428	0.33707	0.26047	0.008698	-0.013428
1.186	0.013275	-0.090637	0.053406	-0.010681	-0.001068	0.010071	-0.043182	0.007629	0.046997	-0.038147	0.005341	-0.001221	0.076141	0.013733	0.057678	-0.00473	0.036163	-0.061951	0.354	0.034485	0.10986	-0.017548	0.082703	-0.053864	-0.14877	-0.27679	0.04303	-0.37705	-0.28076	-0.099487	-0.000916	-0.010223
1.187	0.007477	-0.1181	0.051422	0.004425	0.007629	0.004883	-0.049286	0.002594	0.04303	-0.021362	0.012054	-0.007782	0.066071	0.011597	0.024261	-0.002899	0.058136	-0.11078	-0.001068	0.05188	-0.030212	0.020905	0.12634	-0.048981	-0.018616	-0.19119	-0.025024	-0.061188	-0.093536	0.041046	-0.002289	-0.009155
1.188	0.013428	-0.12589	0.000916	0.002441	0.01297	-0.008698	-0.032959	0.006561	0.052795	-0.024109	0.019836	-0.002899	0.049896	0.025177	-0.033264	-0.003204	0.049438	-0.13626	-0.17731	0.057678	-0.47623	0.10651	0.14984	-0.11093	0.024719	-0.03418	-0.037842	0.35996	0.25787	0.12146	-0.000458	-0.0177
1.189	0.010071	-0.13001	-0.030212	0.002136	0.003662	0.00473	-0.038757	0.002594	0.050507	-0.027618	0.011749	-0.001373	0.045166	-0.01358	-0.039063	-0.028839	0.030212	-0.16525	0.224	0.017853	-0.52231	0.15381	0.12695	-0.14526	0.03891	0.05661	0.007172	0.28671	-0.042114	0.029449	0.00351	-0.02655
1.19	0.006866	-0.12344	-0.041046	0.024109	-0.003662	-0.001373	-0.039063	0.001373	0.039978	-0.023041	0.013123	0.001831	0.071869	-0.028839	-0.029907	0.001526	-0.005798	-0.27359	0.16419	0.015259	0.12985	0.14572	0.055389	-0.11108	0.018311	0.058289	0.039063	0.11139	-0.080872	0.16678	-0.002441	-0.018768
1.191	0.012817	-0.11887	-0.06897	0.014343	-0.020142	-0.009155	-0.059814	0.002441	0.041504	-0.025635	0.008698	-0.009155	0.078583	-0.042114	-0.016174	0.000153	-0.03067	-0.24704	0.13397	-0.004883	0.31769	0.22247	-0.051117	0.095978	0.13565	-0.002594	0.03952	-0.024567	-0.25024	0.53635	-0.005341	-0.016327
1.192	0.013733	-0.097046	-0.057983	0.003662	-0.024109	-0.005188	-0.042419	-0.000458	0.030823	-0.03067	0.003052	0.002136	0.074158	0.003815	0.007019	-0.010681	-0.041351	-0.22873	0.13596	-0.053101	0.30472	0.21393	-0.079651	-0.026245	0.089417	-0.037689	-0.017242	-0.030212	-0.038452	0.3772	-0.00351	-0.017395
1.193	0.006714	-0.10346	-0.049591	-0.003357	-0.009918	-0.045166	-0.039673	0.006866	0.036774	-0.033112	0.005646	0	0.063019	0.01297	0.010681	-0.010834	-0.016174	-0.19165	-0.31311	0.022888	0.23514	0.12238	0.059357	-0.048065	-0.015411	0.056305	0.086517	0.074921	-0.30167	0.20325	-0.002899	-0.015106
1.194	0.011139	-0.09964	-0.063782	0.014801	0.017242	-0.046844	-0.041046	0.003204	0.035858	-0.046387	0.015411	-0.003052	0.049286	-0.16815	0.013733	-0.00946	0.005188	-0.31525	-0.19241	0.050201	0.063782	0.053406	0.15167	-0.121	-0.13947	0.11673	0.27634	0.024414	-0.26367	-0.26993	-0.002899	-0.029449
1.195	0.014801	-0.081482	-0.09079	-0.003815	0.036163	-0.030212	-0.05127	0.011902	0.044098	-0.043945	0.032043	0	0.02655	-0.24246	0.006104	-0.010071	0.027161	-0.45898	0.19791	0.052185	0.044098	0.070801	0.19226	-0.053101	-0.10407	0.069885	0.4393	-0.008392	-0.079651	-0.43823	0.001068	-0.023041
